<svg width="158" height="158" viewBox="0 0 158 158" fill="none" xmlns="http://www.w3.org/2000/svg">
<path d="M112.246 133.51C105.794 139.764 98.75 138.777 91.9692 135.814C84.7934 132.786 78.21 132.654 70.6392 135.814C61.1592 139.896 56.1559 138.711 50.4942 133.51C18.3675 100.396 23.1075 49.9675 59.5792 48.1242C68.4667 48.585 74.655 52.9958 79.8559 53.3908C87.6242 51.8108 95.0634 47.2683 103.358 47.8608C113.299 48.6508 120.804 52.6008 125.742 59.7108C105.202 72.0217 110.073 99.0792 128.902 106.65C125.149 116.525 120.278 126.334 112.18 133.576L112.246 133.51ZM79.1975 47.7292C78.21 33.0483 90.1259 20.935 103.819 19.75C105.728 36.735 88.4142 49.375 79.1975 47.7292Z" fill="white"/>
</svg>
